<svg width="22" height="23" viewBox="0 0 22 23" fill="none" xmlns="http://www.w3.org/2000/svg">
<path fill-rule="evenodd" clip-rule="evenodd" d="M14.7783 2C13.9821 2 13.2185 2.3163 12.6554 2.87933L3.46544 12.0693C2.52714 13.0076 2 14.2803 2 15.6072C2 16.9342 2.52714 18.2068 3.46544 19.1451C4.40375 20.0834 5.67637 20.6106 7.00334 20.6106C8.3303 20.6106 9.60292 20.0834 10.5412 19.1451L19.7312 9.95512C20.1218 9.56459 20.7549 9.56459 21.1454 9.95512C21.536 10.3456 21.536 10.9788 21.1454 11.3693L11.9554 20.5593C10.6421 21.8727 8.86074 22.6106 7.00334 22.6106C5.14594 22.6106 3.36461 21.8727 2.05123 20.5593C0.737849 19.246 0 17.4646 0 15.6072C0 13.7498 0.737849 11.9685 2.05123 10.6551L11.2412 1.46512C12.1793 0.527018 13.4517 0 14.7783 0C16.105 0 17.3773 0.527018 18.3154 1.46512C19.2535 2.40322 19.7806 3.67555 19.7806 5.00222C19.7806 6.3289 19.2535 7.60123 18.3154 8.53933L9.11544 17.7293C8.55263 18.2921 7.78928 18.6083 6.99334 18.6083C6.19739 18.6083 5.43405 18.2921 4.87123 17.7293C4.30841 17.1665 3.99222 16.4032 3.99222 15.6072C3.99222 14.8113 4.30841 14.0479 4.87123 13.4851L13.3616 5.0047C13.7524 4.61441 14.3856 4.61478 14.7759 5.00553C15.1662 5.39629 15.1658 6.02945 14.775 6.41975L6.28544 14.8993C6.09796 15.087 5.99222 15.3419 5.99222 15.6072C5.99222 15.8727 6.0977 16.1274 6.28544 16.3151C6.47319 16.5029 6.72783 16.6083 6.99334 16.6083C7.25885 16.6083 7.51348 16.5029 7.70123 16.3151L16.9012 7.12512C17.464 6.56213 17.7806 5.79828 17.7806 5.00222C17.7806 4.20598 17.4643 3.44236 16.9012 2.87933C16.3382 2.31631 15.5746 2 14.7783 2Z" fill="#333333"/>
</svg>
