<svg width="130" height="130" viewBox="0 0 130 130" fill="none" xmlns="http://www.w3.org/2000/svg">
<circle cx="65" cy="65" r="65" fill="#EFEFEF"/>
<path fill-rule="evenodd" clip-rule="evenodd" d="M81 48H49C47.8954 48 47 48.8954 47 50V71.2667L59.6547 68.3139C60.5486 68.1053 61.4635 68 62.3814 68H67.6186C68.5365 68 69.4514 68.1053 70.3453 68.3139L83 71.2667V50C83 48.8954 82.1046 48 81 48ZM49 46C46.7909 46 45 47.7909 45 50V82C45 84.2091 46.7909 86 49 86H81C83.2091 86 85 84.2091 85 82V50C85 47.7909 83.2091 46 81 46H49ZM55.9091 60.5455C57.9174 60.5455 59.5455 58.9174 59.5455 56.9091C59.5455 54.9008 57.9174 53.2727 55.9091 53.2727C53.9008 53.2727 52.2728 54.9008 52.2728 56.9091C52.2728 58.9174 53.9008 60.5455 55.9091 60.5455Z" fill="#CDCDCD"/>
</svg>
